<mxfile host="app.diagrams.net" modified="2022-08-28T15:05:55.513Z" agent="5.0 (Macintosh; Intel Mac OS X 10_15_7) AppleWebKit/537.36 (KHTML, like Gecko) Chrome/104.0.0.0 Safari/537.36" etag="2r1QJKEieY3Fsw0ZOodf" version="20.2.7" type="github">
  <diagram id="bR9V3Pcv02zV_U_I0X80" name="第 1 页">
    <mxGraphModel dx="2015" dy="1910" grid="1" gridSize="10" guides="1" tooltips="1" connect="1" arrows="1" fold="1" page="1" pageScale="1" pageWidth="827" pageHeight="1169" math="0" shadow="0">
      <root>
        <mxCell id="0" />
        <mxCell id="1" parent="0" />
        <mxCell id="OZb1btigfZs8GOKeT-XS-24" value="" style="shape=image;html=1;verticalAlign=top;verticalLabelPosition=bottom;labelBackgroundColor=#ffffff;imageAspect=0;aspect=fixed;image=https://cdn0.iconfinder.com/data/icons/phosphor-thin-vol-3/256/hexagon-thin-128.png;fontSize=11;fontColor=none;" vertex="1" parent="1">
          <mxGeometry x="355.5" y="429" width="408" height="408" as="geometry" />
        </mxCell>
        <mxCell id="OZb1btigfZs8GOKeT-XS-26" value="" style="shape=image;html=1;verticalAlign=top;verticalLabelPosition=bottom;labelBackgroundColor=#ffffff;imageAspect=0;aspect=fixed;image=https://cdn0.iconfinder.com/data/icons/phosphor-thin-vol-3/256/hexagon-thin-128.png;fontSize=11;fontColor=none;" vertex="1" parent="1">
          <mxGeometry x="504" y="180" width="408" height="408" as="geometry" />
        </mxCell>
        <mxCell id="OZb1btigfZs8GOKeT-XS-28" value="" style="shape=image;html=1;verticalAlign=top;verticalLabelPosition=bottom;labelBackgroundColor=#ffffff;imageAspect=0;aspect=fixed;image=https://cdn0.iconfinder.com/data/icons/phosphor-thin-vol-3/256/hexagon-thin-128.png;fontSize=11;fontColor=none;" vertex="1" parent="1">
          <mxGeometry x="360" y="-69" width="408" height="408" as="geometry" />
        </mxCell>
        <mxCell id="OZb1btigfZs8GOKeT-XS-22" value="" style="shape=image;html=1;verticalAlign=top;verticalLabelPosition=bottom;labelBackgroundColor=#ffffff;imageAspect=0;aspect=fixed;image=https://cdn0.iconfinder.com/data/icons/phosphor-thin-vol-3/256/hexagon-thin-128.png;fontSize=11;fontColor=none;" vertex="1" parent="1">
          <mxGeometry x="62" y="430" width="408" height="408" as="geometry" />
        </mxCell>
        <mxCell id="OZb1btigfZs8GOKeT-XS-30" value="" style="shape=image;html=1;verticalAlign=top;verticalLabelPosition=bottom;labelBackgroundColor=#ffffff;imageAspect=0;aspect=fixed;image=https://cdn0.iconfinder.com/data/icons/phosphor-thin-vol-3/256/hexagon-thin-128.png;fontSize=11;fontColor=none;" vertex="1" parent="1">
          <mxGeometry x="70" y="-69" width="408" height="408" as="geometry" />
        </mxCell>
        <mxCell id="OZb1btigfZs8GOKeT-XS-5" value="" style="shape=image;html=1;verticalAlign=top;verticalLabelPosition=bottom;labelBackgroundColor=#ffffff;imageAspect=0;aspect=fixed;image=https://cdn0.iconfinder.com/data/icons/phosphor-thin-vol-3/256/hexagon-thin-128.png;fontSize=11;fontColor=none;" vertex="1" parent="1">
          <mxGeometry x="210" y="180" width="408" height="408" as="geometry" />
        </mxCell>
        <mxCell id="OZb1btigfZs8GOKeT-XS-8" value="" style="shape=image;verticalLabelPosition=bottom;labelBackgroundColor=default;verticalAlign=top;aspect=fixed;imageAspect=0;image=https://cdn1.iconfinder.com/data/icons/dog-breeds-2/567/dogs_Labrador_Retriever-128.png;rotation=-210;" vertex="1" parent="1">
          <mxGeometry x="316.75" y="255.5" width="90" height="90" as="geometry" />
        </mxCell>
        <mxCell id="OZb1btigfZs8GOKeT-XS-9" value="" style="shape=image;verticalLabelPosition=bottom;labelBackgroundColor=default;verticalAlign=top;aspect=fixed;imageAspect=0;image=https://cdn4.iconfinder.com/data/icons/holiday-summer-filled-outline/64/Artboard_280-128.png;rotation=-149;" vertex="1" parent="1">
          <mxGeometry x="420" y="260" width="79" height="79" as="geometry" />
        </mxCell>
        <mxCell id="OZb1btigfZs8GOKeT-XS-10" value="" style="shape=image;verticalLabelPosition=bottom;labelBackgroundColor=default;verticalAlign=top;aspect=fixed;imageAspect=0;image=https://cdn4.iconfinder.com/data/icons/holiday-summer-filled-outline/64/Artboard_60-128.png;rotation=-90;" vertex="1" parent="1">
          <mxGeometry x="473.5" y="344.5" width="75.5" height="75.5" as="geometry" />
        </mxCell>
        <mxCell id="OZb1btigfZs8GOKeT-XS-11" value="" style="shape=image;verticalLabelPosition=bottom;labelBackgroundColor=default;verticalAlign=top;aspect=fixed;imageAspect=0;image=https://cdn0.iconfinder.com/data/icons/isometric-farm-animals/80/hen-01-128.png;rotation=90;" vertex="1" parent="1">
          <mxGeometry x="270" y="344.5" width="90" height="90" as="geometry" />
        </mxCell>
        <mxCell id="OZb1btigfZs8GOKeT-XS-12" value="" style="shape=image;verticalLabelPosition=bottom;labelBackgroundColor=default;verticalAlign=top;aspect=fixed;imageAspect=0;image=https://cdn3.iconfinder.com/data/icons/social-media-logos-flat-colorful-1/2048/5373_-_WWF-128.png;rotation=30;" vertex="1" parent="1">
          <mxGeometry x="316.75" y="429" width="90" height="90" as="geometry" />
        </mxCell>
        <mxCell id="OZb1btigfZs8GOKeT-XS-13" value="" style="shape=image;verticalLabelPosition=bottom;labelBackgroundColor=default;verticalAlign=top;aspect=fixed;imageAspect=0;image=https://cdn4.iconfinder.com/data/icons/animals-177/512/Giraffe-128.png;rotation=-30;" vertex="1" parent="1">
          <mxGeometry x="400" y="406" width="104" height="104" as="geometry" />
        </mxCell>
        <mxCell id="OZb1btigfZs8GOKeT-XS-14" value="" style="shape=image;html=1;verticalAlign=top;verticalLabelPosition=bottom;labelBackgroundColor=#ffffff;imageAspect=0;aspect=fixed;image=https://cdn0.iconfinder.com/data/icons/phosphor-thin-vol-3/256/hexagon-thin-128.png;fontSize=11;fontColor=none;" vertex="1" parent="1">
          <mxGeometry x="-84" y="180" width="408" height="408" as="geometry" />
        </mxCell>
        <mxCell id="OZb1btigfZs8GOKeT-XS-16" value="" style="shape=image;verticalLabelPosition=bottom;labelBackgroundColor=default;verticalAlign=top;aspect=fixed;imageAspect=0;image=https://cdn1.iconfinder.com/data/icons/dog-breeds-2/567/dogs_Labrador_Retriever-128.png;rotation=-30;" vertex="1" parent="1">
          <mxGeometry x="272.5" y="170" width="90" height="90" as="geometry" />
        </mxCell>
        <mxCell id="OZb1btigfZs8GOKeT-XS-17" value="" style="shape=image;verticalLabelPosition=bottom;labelBackgroundColor=default;verticalAlign=top;aspect=fixed;imageAspect=0;image=https://cdn4.iconfinder.com/data/icons/holiday-summer-filled-outline/64/Artboard_280-128.png;rotation=30;" vertex="1" parent="1">
          <mxGeometry x="480" y="175.5" width="79" height="79" as="geometry" />
        </mxCell>
        <mxCell id="OZb1btigfZs8GOKeT-XS-18" value="" style="shape=image;verticalLabelPosition=bottom;labelBackgroundColor=default;verticalAlign=top;aspect=fixed;imageAspect=0;image=https://cdn4.iconfinder.com/data/icons/holiday-summer-filled-outline/64/Artboard_60-128.png;rotation=90;" vertex="1" parent="1">
          <mxGeometry x="570" y="344.5" width="75.5" height="75.5" as="geometry" />
        </mxCell>
        <mxCell id="OZb1btigfZs8GOKeT-XS-19" value="" style="shape=image;verticalLabelPosition=bottom;labelBackgroundColor=default;verticalAlign=top;aspect=fixed;imageAspect=0;image=https://cdn0.iconfinder.com/data/icons/isometric-farm-animals/80/hen-01-128.png;rotation=-90;" vertex="1" parent="1">
          <mxGeometry x="175.5" y="340" width="90" height="90" as="geometry" />
        </mxCell>
        <mxCell id="OZb1btigfZs8GOKeT-XS-20" value="" style="shape=image;verticalLabelPosition=bottom;labelBackgroundColor=default;verticalAlign=top;aspect=fixed;imageAspect=0;image=https://cdn3.iconfinder.com/data/icons/social-media-logos-flat-colorful-1/2048/5373_-_WWF-128.png;rotation=-150;" vertex="1" parent="1">
          <mxGeometry x="270" y="500" width="90" height="90" as="geometry" />
        </mxCell>
        <mxCell id="OZb1btigfZs8GOKeT-XS-21" value="" style="shape=image;verticalLabelPosition=bottom;labelBackgroundColor=default;verticalAlign=top;aspect=fixed;imageAspect=0;image=https://cdn4.iconfinder.com/data/icons/animals-177/512/Giraffe-128.png;rotation=-210;" vertex="1" parent="1">
          <mxGeometry x="476" y="500" width="104" height="104" as="geometry" />
        </mxCell>
        <mxCell id="OZb1btigfZs8GOKeT-XS-40" value="" style="shape=image;verticalLabelPosition=bottom;labelBackgroundColor=default;verticalAlign=top;aspect=fixed;imageAspect=0;image=https://cdn4.iconfinder.com/data/icons/holiday-summer-filled-outline/64/Artboard_60-128.png;rotation=-90;" vertex="1" parent="1">
          <mxGeometry x="324" y="595.25" width="75.5" height="75.5" as="geometry" />
        </mxCell>
        <mxCell id="OZb1btigfZs8GOKeT-XS-41" value="" style="shape=image;verticalLabelPosition=bottom;labelBackgroundColor=default;verticalAlign=top;aspect=fixed;imageAspect=0;image=https://cdn4.iconfinder.com/data/icons/holiday-summer-filled-outline/64/Artboard_60-128.png;rotation=90;" vertex="1" parent="1">
          <mxGeometry x="423.5" y="595.25" width="75.5" height="75.5" as="geometry" />
        </mxCell>
        <mxCell id="OZb1btigfZs8GOKeT-XS-42" value="" style="shape=image;verticalLabelPosition=bottom;labelBackgroundColor=default;verticalAlign=top;aspect=fixed;imageAspect=0;image=https://cdn1.iconfinder.com/data/icons/dog-breeds-2/567/dogs_Labrador_Retriever-128.png;rotation=-148;" vertex="1" parent="1">
          <mxGeometry x="571.5" y="506.25" width="90" height="90" as="geometry" />
        </mxCell>
        <mxCell id="OZb1btigfZs8GOKeT-XS-43" value="" style="shape=image;verticalLabelPosition=bottom;labelBackgroundColor=default;verticalAlign=top;aspect=fixed;imageAspect=0;image=https://cdn1.iconfinder.com/data/icons/dog-breeds-2/567/dogs_Labrador_Retriever-128.png;rotation=30;" vertex="1" parent="1">
          <mxGeometry x="618" y="420" width="90" height="90" as="geometry" />
        </mxCell>
        <mxCell id="OZb1btigfZs8GOKeT-XS-44" value="" style="shape=image;verticalLabelPosition=bottom;labelBackgroundColor=default;verticalAlign=top;aspect=fixed;imageAspect=0;image=https://cdn0.iconfinder.com/data/icons/isometric-farm-animals/80/hen-01-128.png;rotation=-30;" vertex="1" parent="1">
          <mxGeometry x="571.5" y="170" width="90" height="90" as="geometry" />
        </mxCell>
        <mxCell id="OZb1btigfZs8GOKeT-XS-45" value="" style="shape=image;verticalLabelPosition=bottom;labelBackgroundColor=default;verticalAlign=top;aspect=fixed;imageAspect=0;image=https://cdn0.iconfinder.com/data/icons/isometric-farm-animals/80/hen-01-128.png;rotation=-210;" vertex="1" parent="1">
          <mxGeometry x="618" y="260" width="90" height="90" as="geometry" />
        </mxCell>
        <mxCell id="OZb1btigfZs8GOKeT-XS-46" value="" style="shape=image;verticalLabelPosition=bottom;labelBackgroundColor=default;verticalAlign=top;aspect=fixed;imageAspect=0;image=https://cdn3.iconfinder.com/data/icons/social-media-logos-flat-colorful-1/2048/5373_-_WWF-128.png;rotation=-90;" vertex="1" parent="1">
          <mxGeometry x="330" y="81" width="90" height="90" as="geometry" />
        </mxCell>
        <mxCell id="OZb1btigfZs8GOKeT-XS-47" value="" style="shape=image;verticalLabelPosition=bottom;labelBackgroundColor=default;verticalAlign=top;aspect=fixed;imageAspect=0;image=https://cdn3.iconfinder.com/data/icons/social-media-logos-flat-colorful-1/2048/5373_-_WWF-128.png;rotation=90;" vertex="1" parent="1">
          <mxGeometry x="428.5" y="80" width="90" height="90" as="geometry" />
        </mxCell>
        <mxCell id="OZb1btigfZs8GOKeT-XS-48" value="" style="shape=image;verticalLabelPosition=bottom;labelBackgroundColor=default;verticalAlign=top;aspect=fixed;imageAspect=0;image=https://cdn4.iconfinder.com/data/icons/holiday-summer-filled-outline/64/Artboard_280-128.png;rotation=30;" vertex="1" parent="1">
          <mxGeometry x="175.5" y="171" width="79" height="79" as="geometry" />
        </mxCell>
        <mxCell id="OZb1btigfZs8GOKeT-XS-49" value="" style="shape=image;verticalLabelPosition=bottom;labelBackgroundColor=default;verticalAlign=top;aspect=fixed;imageAspect=0;image=https://cdn4.iconfinder.com/data/icons/holiday-summer-filled-outline/64/Artboard_280-128.png;rotation=-150;" vertex="1" parent="1">
          <mxGeometry x="131" y="255.5" width="79" height="79" as="geometry" />
        </mxCell>
        <mxCell id="OZb1btigfZs8GOKeT-XS-50" value="" style="shape=image;verticalLabelPosition=bottom;labelBackgroundColor=default;verticalAlign=top;aspect=fixed;imageAspect=0;image=https://cdn4.iconfinder.com/data/icons/animals-177/512/Giraffe-128.png;rotation=-30;" vertex="1" parent="1">
          <mxGeometry x="106" y="408" width="104" height="104" as="geometry" />
        </mxCell>
        <mxCell id="OZb1btigfZs8GOKeT-XS-51" value="" style="shape=image;verticalLabelPosition=bottom;labelBackgroundColor=default;verticalAlign=top;aspect=fixed;imageAspect=0;image=https://cdn4.iconfinder.com/data/icons/animals-177/512/Giraffe-128.png;rotation=-210;" vertex="1" parent="1">
          <mxGeometry x="175.75" y="500" width="104" height="104" as="geometry" />
        </mxCell>
        <mxCell id="OZb1btigfZs8GOKeT-XS-52" value="" style="shape=image;verticalLabelPosition=bottom;labelBackgroundColor=default;verticalAlign=top;aspect=fixed;imageAspect=0;image=https://cdn3.iconfinder.com/data/icons/social-media-logos-flat-colorful-1/2048/5373_-_WWF-128.png;rotation=-210;" vertex="1" parent="1">
          <mxGeometry x="30" y="254.5" width="90" height="90" as="geometry" />
        </mxCell>
        <mxCell id="OZb1btigfZs8GOKeT-XS-53" value="" style="shape=image;verticalLabelPosition=bottom;labelBackgroundColor=default;verticalAlign=top;aspect=fixed;imageAspect=0;image=https://cdn3.iconfinder.com/data/icons/social-media-logos-flat-colorful-1/2048/5373_-_WWF-128.png;rotation=-30;" vertex="1" parent="1">
          <mxGeometry x="714.5" y="415" width="90" height="90" as="geometry" />
        </mxCell>
        <mxCell id="OZb1btigfZs8GOKeT-XS-54" value="" style="shape=image;verticalLabelPosition=bottom;labelBackgroundColor=default;verticalAlign=top;aspect=fixed;imageAspect=0;image=https://cdn3.iconfinder.com/data/icons/social-media-logos-flat-colorful-1/2048/5373_-_WWF-128.png;rotation=-30;" vertex="1" parent="1">
          <mxGeometry x="564.25" y="671.75" width="90" height="90" as="geometry" />
        </mxCell>
        <mxCell id="OZb1btigfZs8GOKeT-XS-55" value="" style="shape=image;verticalLabelPosition=bottom;labelBackgroundColor=default;verticalAlign=top;aspect=fixed;imageAspect=0;image=https://cdn4.iconfinder.com/data/icons/animals-177/512/Giraffe-128.png;rotation=-90;" vertex="1" parent="1">
          <mxGeometry x="750" y="326" width="104" height="104" as="geometry" />
        </mxCell>
        <mxCell id="OZb1btigfZs8GOKeT-XS-56" value="" style="shape=image;verticalLabelPosition=bottom;labelBackgroundColor=default;verticalAlign=top;aspect=fixed;imageAspect=0;image=https://cdn4.iconfinder.com/data/icons/animals-177/512/Giraffe-128.png;rotation=-210;" vertex="1" parent="1">
          <mxGeometry x="476" width="104" height="104" as="geometry" />
        </mxCell>
        <mxCell id="OZb1btigfZs8GOKeT-XS-57" value="" style="shape=image;verticalLabelPosition=bottom;labelBackgroundColor=default;verticalAlign=top;aspect=fixed;imageAspect=0;image=https://cdn4.iconfinder.com/data/icons/animals-177/512/Giraffe-128.png;rotation=90;" vertex="1" parent="1">
          <mxGeometry x="124.27" y="67.27" width="117.27" height="117.27" as="geometry" />
        </mxCell>
        <mxCell id="OZb1btigfZs8GOKeT-XS-58" value="" style="shape=image;verticalLabelPosition=bottom;labelBackgroundColor=default;verticalAlign=top;aspect=fixed;imageAspect=0;image=https://cdn1.iconfinder.com/data/icons/dog-breeds-2/567/dogs_Labrador_Retriever-128.png;rotation=-90;" vertex="1" parent="1">
          <mxGeometry x="624.5" y="80" width="90" height="90" as="geometry" />
        </mxCell>
        <mxCell id="OZb1btigfZs8GOKeT-XS-59" value="" style="shape=image;verticalLabelPosition=bottom;labelBackgroundColor=default;verticalAlign=top;aspect=fixed;imageAspect=0;image=https://cdn1.iconfinder.com/data/icons/dog-breeds-2/567/dogs_Labrador_Retriever-128.png;rotation=-30;" vertex="1" parent="1">
          <mxGeometry x="265.5" y="671.75" width="90" height="90" as="geometry" />
        </mxCell>
        <mxCell id="OZb1btigfZs8GOKeT-XS-60" value="" style="shape=image;verticalLabelPosition=bottom;labelBackgroundColor=default;verticalAlign=top;aspect=fixed;imageAspect=0;image=https://cdn1.iconfinder.com/data/icons/dog-breeds-2/567/dogs_Labrador_Retriever-128.png;rotation=30;" vertex="1" parent="1">
          <mxGeometry x="30" y="420" width="90" height="90" as="geometry" />
        </mxCell>
        <mxCell id="OZb1btigfZs8GOKeT-XS-61" value="" style="shape=image;verticalLabelPosition=bottom;labelBackgroundColor=default;verticalAlign=top;aspect=fixed;imageAspect=0;image=https://cdn0.iconfinder.com/data/icons/isometric-farm-animals/80/hen-01-128.png;rotation=-150;" vertex="1" parent="1">
          <mxGeometry x="270" width="90" height="90" as="geometry" />
        </mxCell>
        <mxCell id="OZb1btigfZs8GOKeT-XS-62" value="" style="shape=image;verticalLabelPosition=bottom;labelBackgroundColor=default;verticalAlign=top;aspect=fixed;imageAspect=0;image=https://cdn0.iconfinder.com/data/icons/isometric-farm-animals/80/hen-01-128.png;rotation=-90;" vertex="1" parent="1">
          <mxGeometry x="618" y="589" width="90" height="90" as="geometry" />
        </mxCell>
        <mxCell id="OZb1btigfZs8GOKeT-XS-63" value="" style="shape=image;verticalLabelPosition=bottom;labelBackgroundColor=default;verticalAlign=top;aspect=fixed;imageAspect=0;image=https://cdn0.iconfinder.com/data/icons/isometric-farm-animals/80/hen-01-128.png;rotation=30;" vertex="1" parent="1">
          <mxGeometry x="164.5" y="664" width="90" height="90" as="geometry" />
        </mxCell>
        <mxCell id="OZb1btigfZs8GOKeT-XS-64" value="" style="shape=image;verticalLabelPosition=bottom;labelBackgroundColor=default;verticalAlign=top;aspect=fixed;imageAspect=0;image=https://cdn4.iconfinder.com/data/icons/holiday-summer-filled-outline/64/Artboard_60-128.png;rotation=90;" vertex="1" parent="1">
          <mxGeometry x="-20" y="340.25" width="75.5" height="75.5" as="geometry" />
        </mxCell>
        <mxCell id="OZb1btigfZs8GOKeT-XS-65" value="" style="shape=image;verticalLabelPosition=bottom;labelBackgroundColor=default;verticalAlign=top;aspect=fixed;imageAspect=0;image=https://cdn4.iconfinder.com/data/icons/holiday-summer-filled-outline/64/Artboard_60-128.png;rotation=-210;" vertex="1" parent="1">
          <mxGeometry x="190" y="4.5" width="75.5" height="75.5" as="geometry" />
        </mxCell>
        <mxCell id="OZb1btigfZs8GOKeT-XS-66" value="" style="shape=image;verticalLabelPosition=bottom;labelBackgroundColor=default;verticalAlign=top;aspect=fixed;imageAspect=0;image=https://cdn4.iconfinder.com/data/icons/holiday-summer-filled-outline/64/Artboard_60-128.png;rotation=-150;" vertex="1" parent="1">
          <mxGeometry x="578.75" y="7.25" width="75.5" height="75.5" as="geometry" />
        </mxCell>
        <mxCell id="OZb1btigfZs8GOKeT-XS-67" value="" style="shape=image;verticalLabelPosition=bottom;labelBackgroundColor=default;verticalAlign=top;aspect=fixed;imageAspect=0;image=https://cdn4.iconfinder.com/data/icons/holiday-summer-filled-outline/64/Artboard_280-128.png;rotation=-150;" vertex="1" parent="1">
          <mxGeometry x="720" y="261.25" width="79" height="79" as="geometry" />
        </mxCell>
        <mxCell id="OZb1btigfZs8GOKeT-XS-68" value="" style="shape=image;verticalLabelPosition=bottom;labelBackgroundColor=default;verticalAlign=top;aspect=fixed;imageAspect=0;image=https://cdn4.iconfinder.com/data/icons/holiday-summer-filled-outline/64/Artboard_280-128.png;rotation=35;" vertex="1" parent="1">
          <mxGeometry x="476" y="677.25" width="79" height="79" as="geometry" />
        </mxCell>
        <mxCell id="OZb1btigfZs8GOKeT-XS-69" value="" style="shape=image;verticalLabelPosition=bottom;labelBackgroundColor=default;verticalAlign=top;aspect=fixed;imageAspect=0;image=https://cdn4.iconfinder.com/data/icons/holiday-summer-filled-outline/64/Artboard_280-128.png;rotation=90;" vertex="1" parent="1">
          <mxGeometry x="125" y="585" width="79" height="79" as="geometry" />
        </mxCell>
      </root>
    </mxGraphModel>
  </diagram>
</mxfile>
